<svg id="Layer_1" data-name="Layer 1" xmlns="http://www.w3.org/2000/svg" viewBox="0 0 230.272 53.424"><path d="M222.35,0H7.922A7.922,7.922,0,0,0,0,7.922V45.5a7.922,7.922,0,0,0,7.922,7.922H222.35a7.922,7.922,0,0,0,7.922-7.922V7.922A7.922,7.922,0,0,0,222.35,0ZM99.336,14.466c0-1.6,1.95-2.738,3.6-1.174a.823.823,0,0,1,.241.6V30.2H99.336ZM35.407,33.787a11.1,11.1,0,0,1-1.177,3.775,9.031,9.031,0,0,1-8.152,4.927L14.706,42.5V27.9a2.066,2.066,0,0,1,4.132,0V38.448h7.2a5.025,5.025,0,0,0,4.112-2.462,6.293,6.293,0,0,0,1.069-2.8c.115-1.133.173-3.367.173-5.991,0-2.693-.078-4.527-.173-5.511-.445-4.61-6.071-4.449-6.071-4.449H14.706v-4.3H25.344s9.7-.295,10.055,8.354c.151,1.979.219,2.831.219,6.07Q35.618,31.926,35.407,33.787Zm-8.1-5.023v4.088H23.174V28.764Zm-4.137-1.112V23.564h4.137v4.088Zm37.9,14.367h-.241v-.273H44.412a.87.87,0,0,1-.635-.258C42.185,39.794,43.356,37.8,45,37.8h15.9v3.681h.179ZM61.211,28.8H46.747V25.14H57.065V16.809H45.854a1.992,1.992,0,0,1-1.79-.91,2.167,2.167,0,0,1,1.79-3.361H61.211ZM83.882,41.508A9.479,9.479,0,0,1,71.694,35a19.658,19.658,0,0,1-.333-4.566c-.01-1.245-.032-1.955-.006-3.2a2.046,2.046,0,0,1,4.062-.364,8.141,8.141,0,0,1,.045,1.326c0,.536,0,.532,0,1.068,0,.979,0,1.96.04,2.939a5.525,5.525,0,0,0,3.814,5.116,5.278,5.278,0,0,0,3.847-.351,4.832,4.832,0,0,0,1.509-1.236,6.416,6.416,0,0,0,.6-.848l.252-.432,3.838,1.858A9.482,9.482,0,0,1,83.882,41.508Zm2.525-20.824c-.8-3.985-4.849-4.294-5.659-4.315l-.123-.006h0c-.108,0-4.194.141-5.292,4.97a1.937,1.937,0,0,1-3.778-.853,11.5,11.5,0,0,1,3.177-5.841A8.974,8.974,0,0,1,80.768,12.5h.091a9.3,9.3,0,0,1,9.076,6.665Zm12.67,11.4h4.1v4.053h-4.1Zm4.151,10.2h-4.1V38.23h4.1Zm23.466-12.893c-1.135.56-4.247.489-4.247.489h-5.3V42.19h-4.137V25.864l10.414,0a4.333,4.333,0,0,0,3.5-1.48,4.877,4.877,0,0,0,1.146-3.289,4.142,4.142,0,0,0-1.372-3.391,4.472,4.472,0,0,0-3.044-.926l-8.636-.01c-1.661,0-2.851-2.022-1.239-3.739a.9.9,0,0,1,.657-.267h9.256a7.948,7.948,0,0,1,5.573,1.968,8.268,8.268,0,0,1,2.71,6.376Q131.9,27.2,126.694,29.391Zm33.97,10.656h0v.005a2.078,2.078,0,0,1-4.155,0v-.005h0V29.578H145.624V42.129h-4.155V12.648h4.155V25.862h15.04Zm0-16.642h-3.957V14.022a.874.874,0,0,1,.259-.638c1.7-1.6,3.7-.422,3.7,1.22v8.8Zm24.642,19.069H169.95V26.211h14.464v3.661H174.1V38.2h11.21a1.992,1.992,0,0,1,1.791.91A2.167,2.167,0,0,1,185.306,42.474Zm.471-25.507h-15.9V12.928h15.9a2.02,2.02,0,0,1,0,4.039Zm20.142,17.805-3.55,7.439H197.74l4.249-8.917.019-.041.4-.841a.976.976,0,0,1,.575-.52C205.332,31.177,206.679,33.214,205.919,34.772ZM202.181,24a4.249,4.249,0,0,0,3.428,1.451h6.156v0h4.058V41.915h-4.058V29.385h-5.2s-3.052.07-4.166-.48q-5.1-2.151-5.175-8.124a8.108,8.108,0,0,1,2.657-6.253c1.411-1.287,4-1.931,6.23-1.931h8.325a.863.863,0,0,1,.628.255c1.591,1.685.423,3.675-1.208,3.675h-7.848v.009h-.623a4.388,4.388,0,0,0-2.986.908,4.065,4.065,0,0,0-1.346,3.327A4.786,4.786,0,0,0,202.181,24Z" transform="translate(0 0)" style="fill:#04fc7c"/></svg>