<svg width="400" height="399" viewBox="0 0 400 399" fill="none" xmlns="http://www.w3.org/2000/svg">
<path d="M365.296 187H36.1599C32.9349 187 29.842 188.281 27.5615 190.562C25.2811 192.842 24 195.935 24 199.16L24 256.84C24 260.065 25.2811 263.158 27.5615 265.438C29.842 267.719 32.9349 269 36.1599 269H365.296C368.521 269 371.614 267.719 373.894 265.438C376.174 263.158 377.456 260.065 377.456 256.84V199.16C377.456 195.935 376.174 192.842 373.894 190.562C371.614 188.281 368.521 187 365.296 187V187ZM176.476 209.205C176.476 206.749 179.469 205.002 182.001 207.403C182.122 207.523 182.217 207.667 182.281 207.825C182.344 207.983 182.375 208.153 182.371 208.323V233.355H176.476V209.205ZM78.3479 238.861C78.0974 240.885 77.4854 242.848 76.5413 244.656C75.3675 246.957 73.5739 248.885 71.363 250.221C69.152 251.557 66.6116 252.249 64.0284 252.218L46.5729 252.235V229.825C46.5729 228.984 46.9071 228.177 47.5018 227.583C48.0965 226.988 48.9031 226.654 49.7441 226.654C50.5852 226.654 51.3918 226.988 51.9865 227.583C52.5812 228.177 52.9154 228.984 52.9154 229.825V246.016H63.967C65.2505 245.961 66.5002 245.587 67.6024 244.927C68.7046 244.267 69.6246 243.342 70.2787 242.237C71.1638 240.957 71.7267 239.483 71.9195 237.939C72.0961 236.2 72.1851 232.771 72.1851 228.743C72.1851 224.609 72.0654 221.794 71.9195 220.284C71.2365 213.208 62.6009 213.455 62.6009 213.455H46.5729V206.855H62.9017C62.9017 206.855 77.7907 206.402 78.3356 219.678C78.5674 222.715 78.6718 224.023 78.6718 228.995C78.6718 233.668 78.5638 236.957 78.3479 238.861ZM65.9148 231.151V237.426H59.5709V231.151H65.9148ZM59.5647 229.444V223.17H65.9148V229.444H59.5647ZM117.739 251.497H117.369V251.078H92.1701C91.9893 251.081 91.8097 251.048 91.6421 250.98C91.4746 250.912 91.3226 250.81 91.1954 250.682C88.7518 248.082 90.5492 245.021 93.0727 245.021H117.478V250.671H117.753L117.739 251.497ZM117.956 231.207H95.7542V225.589H111.592V212.801H94.3835C93.8429 212.832 93.3036 212.719 92.8209 212.474C92.3381 212.229 91.9292 211.859 91.636 211.404C91.3062 210.905 91.1173 210.326 91.0891 209.728C91.0609 209.13 91.1945 208.536 91.4758 208.008C91.7571 207.48 92.1757 207.037 92.6874 206.727C93.1992 206.417 93.7851 206.25 94.3835 206.245H117.956V231.207ZM152.755 250.713C150.872 251.349 148.879 251.594 146.899 251.43C144.919 251.267 142.993 250.7 141.24 249.764C139.487 248.828 137.944 247.543 136.707 245.988C135.47 244.433 134.565 242.642 134.047 240.723C133.604 238.415 133.432 236.063 133.535 233.715C133.52 231.804 133.486 230.714 133.526 228.803C133.52 228.014 133.811 227.253 134.341 226.669C134.871 226.085 135.601 225.722 136.386 225.651C137.172 225.581 137.955 225.809 138.58 226.289C139.205 226.769 139.627 227.467 139.761 228.244C139.84 228.919 139.863 229.6 139.83 230.279C139.83 231.102 139.83 231.096 139.83 231.919C139.83 233.421 139.83 234.927 139.892 236.43C139.935 238.184 140.522 239.881 141.57 241.287C142.619 242.693 144.078 243.74 145.746 244.283C147.712 244.856 149.821 244.663 151.651 243.744C152.544 243.276 153.332 242.63 153.967 241.847C154.309 241.438 154.617 241.003 154.888 240.545L155.275 239.882L161.166 242.734C160.385 244.569 159.236 246.224 157.789 247.597C156.342 248.97 154.628 250.03 152.755 250.713V250.713ZM156.63 218.749C155.402 212.632 149.187 212.158 147.944 212.126L147.755 212.116C147.589 212.116 141.318 212.333 139.632 219.745C139.445 220.5 138.969 221.151 138.307 221.559C137.646 221.967 136.85 222.099 136.092 221.928C135.334 221.757 134.673 221.295 134.25 220.643C133.828 219.99 133.678 219.198 133.833 218.436C134.54 215.032 136.237 211.913 138.71 209.47C141.289 207.274 144.588 206.105 147.975 206.187H148.114C151.236 206.134 154.288 207.106 156.804 208.954C159.32 210.802 161.162 213.423 162.046 216.417L156.63 218.749ZM176.078 236.247H182.371V242.468H176.078V236.247ZM182.45 251.904H176.156V245.681H182.45V251.904ZM218.469 232.114C216.727 232.973 211.95 232.864 211.95 232.864H203.815V251.759H197.464V226.7H213.449C214.459 226.754 215.467 226.578 216.398 226.184C217.329 225.791 218.158 225.19 218.822 224.428C220.01 223.019 220.636 221.222 220.581 219.38C220.652 218.409 220.499 217.435 220.134 216.532C219.768 215.63 219.201 214.823 218.475 214.175C217.144 213.144 215.482 212.638 213.802 212.753L200.547 212.738C197.997 212.738 196.171 209.634 198.645 206.999C198.776 206.866 198.934 206.761 199.107 206.69C199.28 206.62 199.466 206.585 199.653 206.589H213.861C216.995 206.459 220.058 207.541 222.415 209.61C223.775 210.843 224.851 212.357 225.569 214.046C226.288 215.736 226.631 217.562 226.575 219.397C226.498 225.633 223.796 229.872 218.469 232.114V232.114ZM270.611 248.47V248.478C270.593 249.311 270.249 250.105 269.653 250.688C269.057 251.271 268.256 251.597 267.422 251.597C266.588 251.597 265.788 251.271 265.192 250.688C264.595 250.105 264.251 249.311 264.233 248.478V248.47V232.401H247.525V251.666H241.148V206.414H247.525V226.697H270.611V248.47ZM270.611 222.925H264.537V208.523C264.534 208.341 264.567 208.161 264.635 207.993C264.704 207.824 264.806 207.672 264.935 207.544C267.544 205.088 270.614 206.896 270.614 209.416V222.924L270.611 222.925ZM308.435 252.195H284.864V227.233H307.066V232.852H291.234V245.635H308.441C308.982 245.603 309.522 245.716 310.005 245.961C310.488 246.207 310.897 246.576 311.19 247.032C311.522 247.532 311.712 248.112 311.74 248.711C311.769 249.31 311.635 249.906 311.352 250.435C311.07 250.964 310.65 251.407 310.136 251.717C309.623 252.027 309.035 252.192 308.435 252.195V252.195ZM309.158 213.043H284.752V206.844H309.158C309.968 206.862 310.739 207.196 311.306 207.776C311.872 208.355 312.19 209.133 312.19 209.944C312.19 210.754 311.872 211.532 311.306 212.112C310.739 212.691 309.968 213.025 309.158 213.043V213.043ZM340.075 240.373L334.626 251.792H327.521L334.043 238.105L334.072 238.042L334.686 236.751C334.771 236.564 334.893 236.398 335.044 236.26C335.196 236.123 335.375 236.018 335.568 235.953C339.174 234.855 341.242 237.982 340.075 240.373V240.373ZM334.337 223.839C334.988 224.585 335.8 225.173 336.711 225.559C337.623 225.945 338.611 226.118 339.599 226.066H349.048H355.277V251.337H349.048V232.104H341.067C341.067 232.104 336.382 232.212 334.672 231.368C329.453 229.167 326.805 225.01 326.729 218.898C326.674 217.098 327.01 215.308 327.714 213.651C328.418 211.994 329.473 210.509 330.807 209.3C332.973 207.324 336.947 206.336 340.37 206.336H353.148C353.327 206.333 353.504 206.366 353.67 206.433C353.836 206.5 353.986 206.6 354.112 206.727C356.554 209.314 354.761 212.368 352.258 212.368H340.212V212.382H339.255C337.608 212.269 335.977 212.765 334.672 213.776C333.96 214.412 333.403 215.203 333.045 216.089C332.687 216.974 332.536 217.93 332.606 218.882C332.553 220.691 333.169 222.456 334.337 223.839V223.839Z" fill="#04FC7C"/>
<path d="M194.936 84.127C183.943 84.127 175 93.0707 175 104.063C175 115.055 183.943 123.999 194.936 123.999C205.929 123.999 214.872 115.055 214.872 104.063C214.872 93.0706 205.929 84.127 194.936 84.127ZM194.936 121.784C185.165 121.784 177.215 113.834 177.215 104.063C177.215 94.2917 185.165 86.342 194.936 86.342C204.707 86.342 212.657 94.2918 212.657 104.063C212.657 113.834 204.707 121.784 194.936 121.784Z" fill="white" fill-opacity="0.9"/>
<path d="M201.124 71.1466C200.666 69.4312 199.567 67.9991 198.031 67.1121L194.185 64.8917C192.648 64.0048 190.859 63.7701 189.144 64.2298C187.431 64.6895 185.999 65.7905 185.111 67.3275L181.789 73.0817C181.484 73.6116 181.665 74.2887 182.195 74.5948C182.724 74.8998 183.401 74.717 183.708 74.1892L187.03 68.4351C187.622 67.4097 188.577 66.6753 189.719 66.3692C190.858 66.062 192.053 66.2178 193.078 66.8105L196.924 69.0311C197.947 69.6216 198.679 70.5756 198.984 71.7189C199.29 72.8611 199.132 74.0551 198.54 75.0805L195.218 80.8347C194.912 81.3646 195.093 82.0417 195.623 82.3478C195.798 82.4483 195.988 82.496 196.176 82.496C196.559 82.496 196.931 82.297 197.136 81.9422L200.458 76.1881C201.346 74.6509 201.582 72.8598 201.124 71.1466Z" fill="white" fill-opacity="0.9"/>
<path d="M194.826 98.5254C194.215 98.5254 193.719 99.0207 193.719 99.6329V107.386C193.719 107.998 194.215 108.493 194.826 108.493C195.438 108.493 195.934 107.998 195.934 107.386V99.6329C195.934 99.0207 195.438 98.5254 194.826 98.5254Z" fill="white" fill-opacity="0.9"/>
</svg>
